<svg width="135" height="48" viewBox="0 0 135 48" fill="none" xmlns="http://www.w3.org/2000/svg">
<path d="M6 24.5C6 15.9396 12.9396 9 21.5 9H124C126.209 9 128 10.7909 128 13V36C128 38.2091 126.209 40 124 40H21.5C12.9396 40 6 33.0604 6 24.5Z" fill="url(#paint0_linear_2006_6360)"/>
<g filter="url(#filter0_i_2006_6360)">
<circle cx="18" cy="24.5" r="4" fill="white"/>
</g>
<path d="M29.1477 30V18.3636H33.6023C34.4432 18.3636 35.142 18.4962 35.6989 18.7614C36.2595 19.0227 36.678 19.3807 36.9545 19.8352C37.2348 20.2898 37.375 20.8049 37.375 21.3807C37.375 21.8542 37.2841 22.2595 37.1023 22.5966C36.9205 22.9299 36.6761 23.2008 36.3693 23.4091C36.0625 23.6174 35.7197 23.767 35.3409 23.858V23.9716C35.7538 23.9943 36.1496 24.1212 36.5284 24.3523C36.911 24.5795 37.2235 24.9015 37.4659 25.3182C37.7083 25.7348 37.8295 26.2386 37.8295 26.8295C37.8295 27.4318 37.6837 27.9735 37.392 28.4545C37.1004 28.9318 36.661 29.3087 36.0739 29.5852C35.4867 29.8617 34.7481 30 33.858 30H29.1477ZM31.2557 28.2386H33.5227C34.2879 28.2386 34.839 28.0928 35.1761 27.8011C35.517 27.5057 35.6875 27.1269 35.6875 26.6648C35.6875 26.3201 35.6023 26.0095 35.4318 25.733C35.2614 25.4527 35.0189 25.233 34.7045 25.0739C34.3902 24.911 34.0152 24.8295 33.5795 24.8295H31.2557V28.2386ZM31.2557 23.3125H33.3409C33.7045 23.3125 34.0322 23.2462 34.3239 23.1136C34.6155 22.9773 34.8447 22.786 35.0114 22.5398C35.1818 22.2898 35.267 21.9943 35.267 21.6534C35.267 21.2027 35.108 20.8314 34.7898 20.5398C34.4754 20.2481 34.0076 20.1023 33.3864 20.1023H31.2557V23.3125ZM39.5724 30V21.2727H41.5668V22.7273H41.6577C41.8168 22.2235 42.0895 21.8352 42.4759 21.5625C42.866 21.286 43.3111 21.1477 43.8111 21.1477C43.9247 21.1477 44.0516 21.1534 44.1918 21.1648C44.3357 21.1723 44.455 21.1856 44.5497 21.2045V23.0966C44.4626 23.0663 44.3243 23.0398 44.1349 23.017C43.9493 22.9905 43.7694 22.9773 43.5952 22.9773C43.2202 22.9773 42.883 23.0587 42.5838 23.2216C42.2884 23.3807 42.0554 23.6023 41.8849 23.8864C41.7145 24.1705 41.6293 24.4981 41.6293 24.8693V30H39.5724ZM48.2713 30.1761C47.7183 30.1761 47.2202 30.0777 46.777 29.8807C46.3376 29.6799 45.9891 29.3845 45.7315 28.9943C45.4777 28.6042 45.3509 28.1231 45.3509 27.5511C45.3509 27.0587 45.4418 26.6515 45.6236 26.3295C45.8054 26.0076 46.0535 25.75 46.3679 25.5568C46.6823 25.3636 47.0365 25.2178 47.4304 25.1193C47.8281 25.017 48.2391 24.9432 48.6634 24.8977C49.1747 24.8447 49.5895 24.7973 49.9077 24.7557C50.2259 24.7102 50.4569 24.642 50.6009 24.5511C50.7486 24.4564 50.8224 24.3106 50.8224 24.1136V24.0795C50.8224 23.6515 50.6955 23.3201 50.4418 23.0852C50.188 22.8504 49.8224 22.733 49.3452 22.733C48.8414 22.733 48.4418 22.8428 48.1463 23.0625C47.8546 23.2822 47.6577 23.5417 47.5554 23.8409L45.6349 23.5682C45.7865 23.0379 46.0365 22.5947 46.3849 22.2386C46.7334 21.8788 47.1596 21.6098 47.6634 21.4318C48.1671 21.25 48.724 21.1591 49.3338 21.1591C49.7543 21.1591 50.1728 21.2083 50.5895 21.3068C51.0062 21.4053 51.3868 21.5682 51.7315 21.7955C52.0762 22.0189 52.3527 22.3239 52.5611 22.7102C52.7732 23.0966 52.8793 23.5795 52.8793 24.1591V30H50.902V28.8011H50.8338C50.7088 29.0436 50.5327 29.2708 50.3054 29.483C50.0819 29.6913 49.7997 29.8598 49.4588 29.9886C49.1217 30.1136 48.7259 30.1761 48.2713 30.1761ZM48.8054 28.6648C49.2183 28.6648 49.5762 28.5833 49.8793 28.4205C50.1823 28.2538 50.4152 28.0341 50.5781 27.7614C50.7448 27.4886 50.8281 27.1913 50.8281 26.8693V25.8409C50.7637 25.8939 50.6539 25.9432 50.4986 25.9886C50.3471 26.0341 50.1766 26.0739 49.9872 26.108C49.7978 26.142 49.6103 26.1723 49.4247 26.1989C49.2391 26.2254 49.0781 26.2481 48.9418 26.267C48.6349 26.3087 48.3603 26.3769 48.1179 26.4716C47.8755 26.5663 47.6842 26.6989 47.544 26.8693C47.4039 27.036 47.3338 27.2519 47.3338 27.517C47.3338 27.8958 47.4721 28.1818 47.7486 28.375C48.0251 28.5682 48.3774 28.6648 48.8054 28.6648ZM57.0043 24.8864V30H54.9474V21.2727H56.9134V22.7557H57.0156C57.2164 22.267 57.5365 21.8788 57.9759 21.5909C58.419 21.303 58.9664 21.1591 59.6179 21.1591C60.2202 21.1591 60.7448 21.2879 61.1918 21.5455C61.6425 21.803 61.991 22.1761 62.2372 22.6648C62.4872 23.1534 62.6103 23.7462 62.6065 24.4432V30H60.5497V24.7614C60.5497 24.178 60.3982 23.7216 60.0952 23.392C59.7959 23.0625 59.3812 22.8977 58.8509 22.8977C58.491 22.8977 58.1709 22.9773 57.8906 23.1364C57.6141 23.2917 57.3963 23.517 57.2372 23.8125C57.0819 24.108 57.0043 24.4659 57.0043 24.8864ZM67.9361 30.1534C67.2505 30.1534 66.6368 29.9773 66.0952 29.625C65.5535 29.2727 65.1255 28.7614 64.8111 28.0909C64.4967 27.4205 64.3395 26.6061 64.3395 25.6477C64.3395 24.678 64.4986 23.8598 64.8168 23.1932C65.1387 22.5227 65.5724 22.017 66.1179 21.6761C66.6634 21.3314 67.2713 21.1591 67.9418 21.1591C68.4531 21.1591 68.8736 21.2462 69.2031 21.4205C69.5327 21.5909 69.794 21.7973 69.9872 22.0398C70.1804 22.2784 70.33 22.5038 70.4361 22.7159H70.5213V18.3636H72.5838V30H70.5611V28.625H70.4361C70.33 28.8371 70.1766 29.0625 69.9759 29.3011C69.7751 29.536 69.5099 29.7367 69.1804 29.9034C68.8509 30.0701 68.4361 30.1534 67.9361 30.1534ZM68.5099 28.4659C68.9455 28.4659 69.3168 28.3485 69.6236 28.1136C69.9304 27.875 70.1634 27.5436 70.3224 27.1193C70.4815 26.6951 70.5611 26.2008 70.5611 25.6364C70.5611 25.072 70.4815 24.5814 70.3224 24.1648C70.1671 23.7481 69.9361 23.4242 69.6293 23.1932C69.3262 22.9621 68.9531 22.8466 68.5099 22.8466C68.0516 22.8466 67.669 22.9659 67.3622 23.2045C67.0554 23.4432 66.8243 23.7727 66.669 24.1932C66.5137 24.6136 66.4361 25.0947 66.4361 25.6364C66.4361 26.1818 66.5137 26.6686 66.669 27.0966C66.8281 27.5208 67.0611 27.8561 67.3679 28.1023C67.6785 28.3447 68.0592 28.4659 68.5099 28.4659ZM85.1591 21.5625C85.1061 21.0663 84.8826 20.6799 84.4886 20.4034C84.0985 20.1269 83.5909 19.9886 82.9659 19.9886C82.5265 19.9886 82.1496 20.0549 81.8352 20.1875C81.5208 20.3201 81.2803 20.5 81.1136 20.7273C80.947 20.9545 80.8617 21.214 80.858 21.5057C80.858 21.7481 80.9129 21.9583 81.0227 22.1364C81.1364 22.3144 81.2898 22.4659 81.483 22.5909C81.6761 22.7121 81.8902 22.8144 82.125 22.8977C82.3598 22.9811 82.5966 23.0511 82.8352 23.108L83.9261 23.3807C84.3655 23.483 84.7879 23.6212 85.1932 23.7955C85.6023 23.9697 85.9678 24.1894 86.2898 24.4545C86.6155 24.7197 86.8731 25.0398 87.0625 25.4148C87.2519 25.7898 87.3466 26.2292 87.3466 26.733C87.3466 27.4148 87.1723 28.0152 86.8239 28.5341C86.4754 29.0492 85.9716 29.4527 85.3125 29.7443C84.6572 30.0322 83.8636 30.1761 82.9318 30.1761C82.0265 30.1761 81.2405 30.036 80.5739 29.7557C79.911 29.4754 79.392 29.0663 79.017 28.5284C78.6458 27.9905 78.4451 27.3352 78.4148 26.5625H80.4886C80.5189 26.9678 80.6439 27.3049 80.8636 27.5739C81.0833 27.8428 81.3693 28.0436 81.7216 28.1761C82.0777 28.3087 82.4754 28.375 82.9148 28.375C83.3731 28.375 83.7746 28.3068 84.1193 28.1705C84.4678 28.0303 84.7405 27.8371 84.9375 27.5909C85.1345 27.3409 85.2348 27.0492 85.2386 26.7159C85.2348 26.4129 85.1458 26.1629 84.9716 25.9659C84.7973 25.7652 84.553 25.5985 84.2386 25.4659C83.928 25.3295 83.5644 25.2083 83.1477 25.1023L81.8239 24.7614C80.8655 24.5152 80.108 24.142 79.5511 23.642C78.9981 23.1383 78.7216 22.4697 78.7216 21.6364C78.7216 20.9508 78.9072 20.3504 79.2784 19.8352C79.6534 19.3201 80.1629 18.9205 80.8068 18.6364C81.4508 18.3485 82.1799 18.2045 82.9943 18.2045C83.8201 18.2045 84.5436 18.3485 85.1648 18.6364C85.7898 18.9205 86.2803 19.3163 86.6364 19.8239C86.9924 20.3277 87.1761 20.9072 87.1875 21.5625H85.1591ZM93.4929 21.2727V22.8636H88.4759V21.2727H93.4929ZM89.7145 19.1818H91.7713V27.375C91.7713 27.6515 91.813 27.8636 91.8963 28.0114C91.9834 28.1553 92.0971 28.2538 92.2372 28.3068C92.3774 28.3598 92.5327 28.3864 92.7031 28.3864C92.8319 28.3864 92.9493 28.3769 93.0554 28.358C93.1652 28.339 93.2486 28.322 93.3054 28.3068L93.652 29.9148C93.5421 29.9527 93.3849 29.9943 93.1804 30.0398C92.9796 30.0852 92.7334 30.1117 92.4418 30.1193C91.9266 30.1345 91.4626 30.0568 91.0497 29.8864C90.6368 29.7121 90.3092 29.4432 90.0668 29.0795C89.8281 28.7159 89.7107 28.2614 89.7145 27.7159V19.1818ZM98.9261 30.1705C98.0739 30.1705 97.3352 29.983 96.7102 29.608C96.0852 29.233 95.6004 28.7083 95.2557 28.0341C94.9148 27.3598 94.7443 26.572 94.7443 25.6705C94.7443 24.7689 94.9148 23.9792 95.2557 23.3011C95.6004 22.6231 96.0852 22.0966 96.7102 21.7216C97.3352 21.3466 98.0739 21.1591 98.9261 21.1591C99.7784 21.1591 100.517 21.3466 101.142 21.7216C101.767 22.0966 102.25 22.6231 102.591 23.3011C102.936 23.9792 103.108 24.7689 103.108 25.6705C103.108 26.572 102.936 27.3598 102.591 28.0341C102.25 28.7083 101.767 29.233 101.142 29.608C100.517 29.983 99.7784 30.1705 98.9261 30.1705ZM98.9375 28.5227C99.3996 28.5227 99.786 28.3958 100.097 28.142C100.407 27.8845 100.638 27.5398 100.79 27.108C100.945 26.6761 101.023 26.1951 101.023 25.6648C101.023 25.1307 100.945 24.6477 100.79 24.2159C100.638 23.7803 100.407 23.4337 100.097 23.1761C99.786 22.9186 99.3996 22.7898 98.9375 22.7898C98.464 22.7898 98.0701 22.9186 97.7557 23.1761C97.4451 23.4337 97.2121 23.7803 97.0568 24.2159C96.9053 24.6477 96.8295 25.1307 96.8295 25.6648C96.8295 26.1951 96.9053 26.6761 97.0568 27.108C97.2121 27.5398 97.4451 27.8845 97.7557 28.142C98.0701 28.3958 98.464 28.5227 98.9375 28.5227ZM104.854 30V21.2727H106.848V22.7273H106.939C107.098 22.2235 107.371 21.8352 107.757 21.5625C108.147 21.286 108.592 21.1477 109.092 21.1477C109.206 21.1477 109.333 21.1534 109.473 21.1648C109.617 21.1723 109.736 21.1856 109.831 21.2045V23.0966C109.744 23.0663 109.606 23.0398 109.416 23.017C109.231 22.9905 109.051 22.9773 108.876 22.9773C108.501 22.9773 108.164 23.0587 107.865 23.2216C107.57 23.3807 107.337 23.6023 107.166 23.8864C106.996 24.1705 106.911 24.4981 106.911 24.8693V30H104.854ZM114.702 30.1705C113.827 30.1705 113.071 29.9886 112.435 29.625C111.802 29.2576 111.315 28.7386 110.974 28.0682C110.634 27.3939 110.463 26.6004 110.463 25.6875C110.463 24.7898 110.634 24.0019 110.974 23.3239C111.319 22.642 111.8 22.1117 112.418 21.733C113.035 21.3504 113.76 21.1591 114.594 21.1591C115.132 21.1591 115.639 21.2462 116.116 21.4205C116.598 21.5909 117.022 21.8561 117.389 22.2159C117.76 22.5758 118.052 23.0341 118.264 23.5909C118.476 24.1439 118.582 24.803 118.582 25.5682V26.1989H111.429V24.8125H116.611C116.607 24.4186 116.522 24.0682 116.355 23.7614C116.188 23.4508 115.955 23.2064 115.656 23.0284C115.361 22.8504 115.016 22.7614 114.622 22.7614C114.202 22.7614 113.832 22.8636 113.514 23.0682C113.196 23.2689 112.948 23.5341 112.77 23.8636C112.596 24.1894 112.507 24.5473 112.503 24.9375V26.1477C112.503 26.6553 112.596 27.0909 112.781 27.4545C112.967 27.8144 113.226 28.0909 113.56 28.2841C113.893 28.4735 114.283 28.5682 114.73 28.5682C115.029 28.5682 115.3 28.5265 115.543 28.4432C115.785 28.3561 115.995 28.2292 116.173 28.0625C116.351 27.8958 116.486 27.6894 116.577 27.4432L118.497 27.6591C118.376 28.1667 118.145 28.6098 117.804 28.9886C117.467 29.3636 117.035 29.6553 116.509 29.8636C115.982 30.0682 115.38 30.1705 114.702 30.1705Z" fill="white"/>
<defs>
<filter id="filter0_i_2006_6360" x="14" y="20.5" width="8" height="8" filterUnits="userSpaceOnUse" color-interpolation-filters="sRGB">
<feFlood flood-opacity="0" result="BackgroundImageFix"/>
<feBlend mode="normal" in="SourceGraphic" in2="BackgroundImageFix" result="shape"/>
<feColorMatrix in="SourceAlpha" type="matrix" values="0 0 0 0 0 0 0 0 0 0 0 0 0 0 0 0 0 0 127 0" result="hardAlpha"/>
<feOffset dy="2"/>
<feComposite in2="hardAlpha" operator="arithmetic" k2="-1" k3="1"/>
<feColorMatrix type="matrix" values="0 0 0 0 0 0 0 0 0 0 0 0 0 0 0 0 0 0 0.1 0"/>
<feBlend mode="normal" in2="shape" result="effect1_innerShadow_2006_6360"/>
</filter>
<linearGradient id="paint0_linear_2006_6360" x1="6" y1="24.5" x2="128" y2="24.5" gradientUnits="userSpaceOnUse">
<stop stop-color="#FF8A5C"/>
<stop offset="1" stop-color="#DB4E66"/>
</linearGradient>
</defs>
</svg>
